<svg width="248" height="246" viewBox="0 0 248 246" fill="none" xmlns="http://www.w3.org/2000/svg">
<path d="M160.599 79.6621H140.967V103.169H160.599V79.6621Z" fill="#61676B"/>
<path d="M165.213 72.543H136.363V79.6628H165.213V72.543Z" fill="#92A3CD"/>
<path d="M205.13 99.2035L188.819 88.2764L175.736 107.806L192.046 118.733L205.13 99.2035Z" fill="#61676B"/>
<path d="M212.924 95.8398L188.956 79.7822L184.993 85.6974L208.961 101.755L212.924 95.8398Z" fill="#92A3CD"/>
<path d="M109.521 118.725L125.831 107.798L112.747 88.2687L96.4372 99.1958L109.521 118.725Z" fill="#61676B"/>
<path d="M92.6081 101.766L116.576 85.708L112.613 79.7929L88.6452 95.8505L92.6081 101.766Z" fill="#92A3CD"/>
<path d="M228.523 164.2C228.523 121.267 193.719 86.4632 150.786 86.4632C107.853 86.4632 73.0488 121.267 73.0488 164.2C73.0488 207.133 107.853 241.937 150.786 241.937C193.719 241.937 228.523 207.133 228.523 164.2Z" fill="#92A3CD"/>
<path d="M150.788 231.424C187.916 231.424 218.013 201.327 218.013 164.199C218.013 127.072 187.916 96.9746 150.788 96.9746C113.661 96.9746 83.5635 127.072 83.5635 164.199C83.5635 201.327 113.661 231.424 150.788 231.424Z" fill="white"/>
<path d="M150.788 108.389C152.56 108.389 153.997 106.953 153.997 105.181C153.997 103.409 152.56 101.973 150.788 101.973C149.016 101.973 147.58 103.409 147.58 105.181C147.58 106.953 149.016 108.389 150.788 108.389Z" fill="#4EA1EA"/>
<path d="M153.997 223.22C153.997 224.984 152.565 226.428 150.788 226.428C149.024 226.428 147.58 224.997 147.58 223.22C147.58 221.455 149.011 220.012 150.788 220.012C152.553 220.024 153.997 221.455 153.997 223.22Z" fill="#4EA1EA"/>
<path d="M209.809 167.408C211.581 167.408 213.017 165.971 213.017 164.199C213.017 162.428 211.581 160.991 209.809 160.991C208.037 160.991 206.601 162.428 206.601 164.199C206.601 165.971 208.037 167.408 209.809 167.408Z" fill="#4EA1EA"/>
<path d="M91.7698 167.408C93.5416 167.408 94.978 165.971 94.978 164.199C94.978 162.428 93.5416 160.991 91.7698 160.991C89.9979 160.991 88.5615 162.428 88.5615 164.199C88.5615 165.971 89.9979 167.408 91.7698 167.408Z" fill="#4EA1EA"/>
<path d="M194.791 120.198L188.115 126.874" stroke="#42537C" stroke-width="1.77295" stroke-miterlimit="10" stroke-linecap="round"/>
<path d="M113.462 201.527L106.786 208.203" stroke="#42537C" stroke-width="1.77295" stroke-miterlimit="10" stroke-linecap="round"/>
<path d="M106.786 120.198L113.462 126.874" stroke="#42537C" stroke-width="1.77295" stroke-miterlimit="10" stroke-linecap="round"/>
<path d="M188.115 201.527L194.791 208.203" stroke="#42537C" stroke-width="1.77295" stroke-miterlimit="10" stroke-linecap="round"/>
<path d="M147.247 160.535L182.353 134.19L154.281 167.926C152.319 170.283 148.728 170.406 146.618 168.185C144.495 165.952 144.792 162.374 147.247 160.535Z" fill="#42537C"/>
<path d="M112.129 58.6126H15.3268C14.0188 58.6126 12.9453 57.5514 12.9453 56.2311C12.9453 54.9231 14.0065 53.8496 15.3268 53.8496H112.129C113.437 53.8496 114.511 54.9108 114.511 56.2311C114.511 57.5514 113.437 58.6126 112.129 58.6126Z" fill="#61676B"/>
<path d="M112.129 241.939H15.3268C14.0188 241.939 12.9453 240.878 12.9453 239.557C12.9453 238.249 14.0065 237.176 15.3268 237.176H112.129C113.437 237.176 114.511 238.237 114.511 239.557C114.511 240.878 113.437 241.939 112.129 241.939Z" fill="#61676B"/>
<path d="M96.6678 182.45C92.6575 175.972 87.438 171.554 81.6632 166.767C77.3937 163.225 66.8683 154.6 67.1644 147.9C66.8683 141.2 77.3937 132.574 81.6632 129.033C87.438 124.245 92.6575 119.828 96.6678 113.35C100.53 107.106 103.097 100.147 104.898 93.0514C105.429 90.9538 110.303 58.6123 108.995 58.6123H63.7217C63.7217 58.6123 18.461 58.6123 18.4486 58.6123C17.1407 58.6123 22.0147 90.9538 22.5453 93.0514C24.3469 100.147 26.9134 107.106 30.7757 113.35C34.786 119.828 40.0055 124.245 45.7803 129.033C50.0497 132.574 60.5752 141.2 60.2791 147.9C60.5752 154.6 50.0497 163.225 45.7803 166.767C40.0055 171.554 34.786 175.972 30.7757 182.45C26.9134 188.694 24.3469 195.653 22.5453 202.748C22.0147 204.846 17.1407 237.187 18.4486 237.187H63.7217C63.7217 237.187 108.982 237.187 108.995 237.187C110.303 237.187 105.429 204.846 104.898 202.748C103.097 195.666 100.53 188.694 96.6678 182.45Z" fill="#A1D3FF"/>
<path d="M80.5649 126.06C85.9819 121.47 90.8929 117.25 94.6564 111.043C98.2842 105.059 100.69 98.3954 102.381 91.5964C102.492 91.1398 102.825 89.1779 103.245 86.4262C99.6292 86.2781 95.9521 86.6236 92.3613 87.1542C85.624 88.1537 78.9484 89.8072 72.1371 90.0169C62.4384 90.3254 52.9 87.7095 43.5468 85.1059C36.7602 83.2303 29.9859 81.3424 23.1992 79.4668C24.0506 85.5501 24.8774 90.8067 25.0748 91.5964C26.7653 98.3954 29.1715 105.059 32.7992 111.043C36.5627 117.25 41.4615 121.482 46.8908 126.06C50.9011 129.454 62.5741 137.709 62.3026 144.125V194.63C33.9591 195.975 26.6296 237.188 26.6296 237.188H63.734H100.838C100.838 237.188 93.4965 195.975 65.1654 194.63V144.125C64.8816 137.709 76.5546 129.441 80.5649 126.06Z" fill="#A2B2E3"/>
<path d="M33.515 202.748C35.3165 195.653 37.8831 188.694 41.7453 182.45C45.7556 175.972 50.9752 171.554 56.75 166.767C59.7855 164.25 65.9798 159.166 69.2004 154.02C67.8924 151.935 67.0657 149.837 67.1521 147.9C67.0657 145.963 67.8924 143.865 69.2004 141.78C65.9798 136.646 59.7855 131.55 56.75 129.033C50.9752 124.245 45.7556 119.828 41.7453 113.35C37.8831 107.106 35.3165 100.147 33.515 93.0514C32.9844 90.9538 28.1104 58.6123 29.4183 58.6123C23.1006 58.6123 18.4486 58.6123 18.4486 58.6123C17.1407 58.6123 22.0147 90.9538 22.5453 93.0514C24.3469 100.147 26.9134 107.106 30.7757 113.35C34.786 119.828 40.0055 124.245 45.7803 129.033C50.0497 132.574 60.5752 141.2 60.2791 147.9C60.5752 154.6 50.0497 163.225 45.7803 166.767C40.0055 171.554 34.786 175.972 30.7757 182.45C26.9134 188.694 24.3469 195.653 22.5453 202.748C22.0147 204.846 17.1407 237.187 18.4486 237.187C18.4486 237.187 23.1006 237.187 29.4183 237.187C28.1104 237.187 32.9844 204.846 33.515 202.748Z" fill="#A1D3FF"/>
<path opacity="0.5" d="M96.6676 182.45C92.6573 175.972 87.4378 171.554 81.663 166.767C77.3935 163.225 66.8681 154.6 67.1642 147.9C66.8681 141.2 77.3935 132.574 81.663 129.033C87.4378 124.245 92.6573 119.828 96.6676 113.35C100.53 107.106 103.096 100.147 104.898 93.0514C105.429 90.9538 110.303 58.6123 108.995 58.6123C108.995 58.6123 108.353 58.6123 107.23 58.6123C108.538 58.6123 103.664 90.9538 103.133 93.0514C101.332 100.147 98.7653 107.106 94.9031 113.35C90.8928 119.828 85.6732 124.245 79.8984 129.033C75.629 132.574 65.1035 141.2 65.3997 147.9C65.1035 154.6 75.629 163.225 79.8984 166.767C85.6732 171.554 90.8928 175.972 94.9031 182.45C98.7653 188.694 101.332 195.653 103.133 202.748C103.664 204.846 108.538 237.187 107.23 237.187C108.353 237.187 108.995 237.187 108.995 237.187C110.303 237.187 105.429 204.846 104.898 202.748C103.096 195.666 100.53 188.694 96.6676 182.45Z" fill="#A1D3FF"/>
<path d="M210.104 4.93555H164.362V62.9675H210.104V4.93555Z" fill="#A1D3FF"/>
<path d="M177.887 13.1162H170.878V20.125H177.887V13.1162Z" fill="#4EA1EA"/>
<path d="M171.248 13.931L174.419 16.8925L178.886 11.3027L174.419 19.0025L169.878 16.0904L171.248 13.931Z" fill="white"/>
<path d="M204.613 13.1162H181.872V14.3501H204.613V13.1162Z" fill="#4EA1EA"/>
<path d="M197.42 16.6201H181.872V17.8541H197.42V16.6201Z" fill="#4EA1EA"/>
<path d="M177.887 25.6035H170.878V32.6123H177.887V25.6035Z" fill="#4EA1EA"/>
<path d="M171.248 26.4307L174.419 29.3921L178.886 23.79L174.419 31.4898L169.878 28.5777L171.248 26.4307Z" fill="white"/>
<path d="M204.613 25.6035H181.872V26.8374H204.613V25.6035Z" fill="#4EA1EA"/>
<path d="M197.42 29.1084H181.872V30.3423H197.42V29.1084Z" fill="#4EA1EA"/>
<path d="M177.887 38.1035H170.878V45.1123H177.887V38.1035Z" fill="#4EA1EA"/>
<path d="M171.248 38.9183L174.419 41.8798L178.886 36.29L174.419 43.9898L169.878 41.0777L171.248 38.9183Z" fill="white"/>
<path d="M204.613 38.1035H181.872V39.3375H204.613V38.1035Z" fill="#4EA1EA"/>
<path d="M197.42 41.6084H181.872V42.8423H197.42V41.6084Z" fill="#4EA1EA"/>
<path d="M131.65 19.1016H93.6201V38.7952H131.65V19.1016Z" fill="#A1D3FF"/>
<path d="M93.6201 38.7958L112.635 25.4199L131.65 38.7958H93.6201Z" fill="#C3BCDA"/>
<path d="M93.6201 19.1016L112.635 31.7494L131.65 19.1016H93.6201Z" fill="#C3BCDA"/>
<path d="M93.6201 19.1013L112.635 6.19434L131.65 19.1013H93.6201Z" fill="#A1D3FF"/>
<path d="M112.635 0H98.543V22.3589L112.635 31.7492L126.738 22.3589V0H112.635Z" fill="#4EA1EA"/>
<path d="M104.8 5.20703H123.296" stroke="white" stroke-width="0.886473" stroke-miterlimit="10"/>
<path d="M101.986 9.25391H123.296" stroke="white" stroke-width="0.886473" stroke-miterlimit="10"/>
<path d="M101.986 13.3145H123.296" stroke="white" stroke-width="0.886473" stroke-miterlimit="10"/>
<path d="M101.986 17.3613H123.296" stroke="white" stroke-width="0.886473" stroke-miterlimit="10"/>
<path d="M101.986 21.4082H116.263" stroke="white" stroke-width="0.886473" stroke-miterlimit="10"/>
<path d="M29.1963 25.5058C29.1963 18.9165 37.8462 13.5859 48.5321 13.5859C59.2179 13.5859 67.8678 18.9289 67.8678 25.5058C67.8678 32.095 59.2179 37.4256 48.5321 37.4256C45.9161 37.4256 43.4236 37.1047 41.1408 36.5248L36.5629 41.078L37.9572 35.4883C32.6883 33.3536 29.1963 29.6765 29.1963 25.5058Z" fill="#C3BCDA"/>
<path d="M78.3805 22.1122C78.3805 15.523 69.7306 10.1924 59.0448 10.1924C48.3589 10.1924 39.709 15.5353 39.709 22.1122C39.709 28.7014 48.3589 34.032 59.0448 34.032C61.6607 34.032 64.1532 33.7112 66.436 33.1312L71.0139 37.6845L69.6196 32.0947C74.9008 29.96 78.3805 26.2829 78.3805 22.1122Z" fill="#A1D3FF"/>
<path d="M53.0487 25.1606C53.0487 25.938 52.4194 26.5673 51.642 26.5673C50.8647 26.5673 50.2354 25.938 50.2354 25.1606C50.2354 24.3832 50.8647 23.7539 51.642 23.7539C52.4194 23.7539 53.0487 24.3832 53.0487 25.1606Z" fill="white"/>
<path d="M60.4521 25.1606C60.4521 25.938 59.8227 26.5673 59.0454 26.5673C58.268 26.5673 57.6387 25.938 57.6387 25.1606C57.6387 24.3832 58.268 23.7539 59.0454 23.7539C59.8227 23.7539 60.4521 24.3832 60.4521 25.1606Z" fill="white"/>
<path d="M67.8681 25.1606C67.8681 25.938 67.2388 26.5673 66.4614 26.5673C65.684 26.5673 65.0547 25.938 65.0547 25.1606C65.0547 24.3832 65.684 23.7539 66.4614 23.7539C67.2388 23.7539 67.8681 24.3832 67.8681 25.1606Z" fill="white"/>
<path d="M98.5438 76.7012C98.5438 76.7012 97.2729 99.7758 85.0322 113.004" stroke="white" stroke-width="3.54589" stroke-miterlimit="10" stroke-linecap="round"/>
<path d="M78.3809 170.11C78.3809 170.11 93.1264 180.13 97.7536 195.998" stroke="white" stroke-width="3.54589" stroke-miterlimit="10" stroke-linecap="round"/>
<path d="M42.8933 151.983C42.8933 154.266 41.0424 156.117 38.7597 156.117C36.4769 156.117 34.626 154.266 34.626 151.983C34.626 149.701 36.4769 147.85 38.7597 147.85C41.0424 147.837 42.8933 149.688 42.8933 151.983Z" stroke="#A1D3FF" stroke-width="0.886473" stroke-miterlimit="10"/>
<path d="M140.497 56.2421C140.497 58.5249 138.646 60.3758 136.363 60.3758C134.08 60.3758 132.229 58.5249 132.229 56.2421C132.229 53.9594 134.08 52.1085 136.363 52.1085C138.646 52.0961 140.497 53.947 140.497 56.2421Z" stroke="#A1D3FF" stroke-width="0.886473" stroke-miterlimit="10"/>
<path d="M218.433 73.777C218.433 75.3934 217.125 76.7014 215.508 76.7014C213.892 76.7014 212.584 75.3934 212.584 73.777C212.584 72.1605 213.892 70.8525 215.508 70.8525C217.113 70.8525 218.433 72.1605 218.433 73.777Z" stroke="#A1D3FF" stroke-width="0.886473" stroke-miterlimit="10"/>
<path d="M233.03 9.66211L230.18 12.5125L227.342 9.66211L225.713 11.2909L228.551 14.1413L225.713 16.9793L227.342 18.6081L230.18 15.7578L233.03 18.6081L234.647 16.9793L231.809 14.1413L234.647 11.2909L233.03 9.66211Z" fill="#A1D3FF"/>
<path d="M21.5711 128.662L18.7331 131.5L15.8827 128.662L14.2539 130.291L17.1043 133.129L14.2539 135.979L15.8827 137.608L18.7331 134.758L21.5711 137.608L23.1999 135.979L20.3619 133.129L23.1999 130.291L21.5711 128.662Z" fill="#A1D3FF"/>
<path d="M217.308 225.811L214.959 228.159L212.6 225.811L211.252 227.159L213.611 229.507L211.252 231.866L212.6 233.214L214.959 230.855L217.308 233.214L218.656 231.866L216.307 229.507L218.656 227.159L217.308 225.811Z" fill="#A1D3FF"/>
<path opacity="0.5" d="M169.668 147.011C169.668 147.011 179.774 169.481 215.151 173.614H176.245L169.668 147.011Z" fill="#A1D3FF"/>
</svg>
